<?xml version="1.0" encoding="UTF-8"?>
<svg version="1.1" xmlns="http://www.w3.org/2000/svg" width="330" height="330">
<path d="M0 0 C9.9 0 19.8 0 30 0 C30 9.9 30 19.8 30 30 C33.3 30 36.6 30 40 30 C40 33.3 40 36.6 40 40 C43.3 40 46.6 40 50 40 C50 36.7 50 33.4 50 30 C56.6 30 63.2 30 70 30 C70 26.7 70 23.4 70 20 C76.6 20 83.2 20 90 20 C90 23.3 90 26.6 90 30 C86.7 30 83.4 30 80 30 C80 33.3 80 36.6 80 40 C76.7 40 73.4 40 70 40 C70 59.8 70 79.6 70 100 C73.3 100 76.6 100 80 100 C80 103.3 80 106.6 80 110 C76.7 110 73.4 110 70 110 C70 113.3 70 116.6 70 120 C56.8 120 43.6 120 30 120 C30 123.3 30 126.6 30 130 C26.7 130 23.4 130 20 130 C20 126.7 20 123.4 20 120 C16.7 120 13.4 120 10 120 C10 123.3 10 126.6 10 130 C3.4 130 -3.2 130 -10 130 C-10 126.7 -10 123.4 -10 120 C-16.6 120 -23.2 120 -30 120 C-30 116.7 -30 113.4 -30 110 C-26.7 110 -23.4 110 -20 110 C-20 103.4 -20 96.8 -20 90 C-26.6 90 -33.2 90 -40 90 C-40 99.9 -40 109.8 -40 120 C-43.3 120 -46.6 120 -50 120 C-50 123.3 -50 126.6 -50 130 C-53.3 130 -56.6 130 -60 130 C-60 120.1 -60 110.2 -60 100 C-56.7 100 -53.4 100 -50 100 C-50 93.4 -50 86.8 -50 80 C-53.3 80 -56.6 80 -60 80 C-60 76.7 -60 73.4 -60 70 C-53.4 70 -46.8 70 -40 70 C-40 60.1 -40 50.2 -40 40 C-36.7 40 -33.4 40 -30 40 C-30 46.6 -30 53.2 -30 60 C-26.7 60 -23.4 60 -20 60 C-20 63.3 -20 66.6 -20 70 C-23.3 70 -26.6 70 -30 70 C-30 73.3 -30 76.6 -30 80 C-23.4 80 -16.8 80 -10 80 C-10 76.7 -10 73.4 -10 70 C-6.7 70 -3.4 70 0 70 C0 76.6 0 83.2 0 90 C-3.3 90 -6.6 90 -10 90 C-10 93.3 -10 96.6 -10 100 C-3.4 100 3.2 100 10 100 C10 103.3 10 106.6 10 110 C13.3 110 16.6 110 20 110 C20 106.7 20 103.4 20 100 C23.3 100 26.6 100 30 100 C30 96.7 30 93.4 30 90 C23.4 90 16.8 90 10 90 C10 83.4 10 76.8 10 70 C13.3 70 16.6 70 20 70 C20 66.7 20 63.4 20 60 C16.7 60 13.4 60 10 60 C10 56.7 10 53.4 10 50 C6.7 50 3.4 50 0 50 C0 53.3 0 56.6 0 60 C-3.3 60 -6.6 60 -10 60 C-10 53.4 -10 46.8 -10 40 C-6.7 40 -3.4 40 0 40 C0 36.7 0 33.4 0 30 C3.3 30 6.6 30 10 30 C10 23.4 10 16.8 10 10 C6.7 10 3.4 10 0 10 C0 6.7 0 3.4 0 0 Z M20 30 C20 33.3 20 36.6 20 40 C23.3 40 26.6 40 30 40 C30 36.7 30 33.4 30 30 C26.7 30 23.4 30 20 30 Z M30 50 C30 59.9 30 69.8 30 80 C39.9 80 49.8 80 60 80 C60 70.1 60 60.2 60 50 C50.1 50 40.2 50 30 50 Z M40 90 C40 96.6 40 103.2 40 110 C43.3 110 46.6 110 50 110 C50 106.7 50 103.4 50 100 C53.3 100 56.6 100 60 100 C60 96.7 60 93.4 60 90 C53.4 90 46.8 90 40 90 Z M-10 110 C-10 113.3 -10 116.6 -10 120 C-6.7 120 -3.4 120 0 120 C0 116.7 0 113.4 0 110 C-3.3 110 -6.6 110 -10 110 Z " fill="#000000" transform="translate(180,160)"/>
<path d="M0 0 C3.3 0 6.6 0 10 0 C10 3.3 10 6.6 10 10 C16.6 10 23.2 10 30 10 C30 6.7 30 3.4 30 0 C36.6 0 43.2 0 50 0 C50 3.3 50 6.6 50 10 C53.3 10 56.6 10 60 10 C60 6.7 60 3.4 60 0 C63.3 0 66.6 0 70 0 C70 6.6 70 13.2 70 20 C73.3 20 76.6 20 80 20 C80 23.3 80 26.6 80 30 C76.7 30 73.4 30 70 30 C70 36.6 70 43.2 70 50 C66.7 50 63.4 50 60 50 C60 53.3 60 56.6 60 60 C56.7 60 53.4 60 50 60 C50 66.6 50 73.2 50 80 C43.4 80 36.8 80 30 80 C30 86.6 30 93.2 30 100 C23.4 100 16.8 100 10 100 C10 96.7 10 93.4 10 90 C6.7 90 3.4 90 0 90 C0 73.5 0 57 0 40 C6.6 40 13.2 40 20 40 C20 33.4 20 26.8 20 20 C13.4 20 6.8 20 0 20 C0 13.4 0 6.8 0 0 Z M30 10 C30 13.3 30 16.6 30 20 C33.3 20 36.6 20 40 20 C40 16.7 40 13.4 40 10 C36.7 10 33.4 10 30 10 Z M30 30 C30 33.3 30 36.6 30 40 C33.3 40 36.6 40 40 40 C40 46.6 40 53.2 40 60 C43.3 60 46.6 60 50 60 C50 50.1 50 40.2 50 30 C43.4 30 36.8 30 30 30 Z M10 50 C10 59.9 10 69.8 10 80 C13.3 80 16.6 80 20 80 C20 73.4 20 66.8 20 60 C23.3 60 26.6 60 30 60 C30 56.7 30 53.4 30 50 C23.4 50 16.8 50 10 50 Z M30 60 C30 63.3 30 66.6 30 70 C33.3 70 36.6 70 40 70 C40 66.7 40 63.4 40 60 C36.7 60 33.4 60 30 60 Z " fill="#000000" transform="translate(120,40)"/>
<path d="M0 0 C6.6 0 13.2 0 20 0 C20 3.3 20 6.6 20 10 C16.7 10 13.4 10 10 10 C10 13.3 10 16.6 10 20 C19.9 20 29.8 20 40 20 C40 23.3 40 26.6 40 30 C43.3 30 46.6 30 50 30 C50 39.9 50 49.8 50 60 C46.7 60 43.4 60 40 60 C40 63.3 40 66.6 40 70 C36.7 70 33.4 70 30 70 C30 73.3 30 76.6 30 80 C26.7 80 23.4 80 20 80 C20 83.3 20 86.6 20 90 C10.1 90 0.2 90 -10 90 C-10 86.7 -10 83.4 -10 80 C-6.7 80 -3.4 80 0 80 C0 76.7 0 73.4 0 70 C-16.5 70 -33 70 -50 70 C-50 66.7 -50 63.4 -50 60 C-46.7 60 -43.4 60 -40 60 C-40 56.7 -40 53.4 -40 50 C-33.4 50 -26.8 50 -20 50 C-20 53.3 -20 56.6 -20 60 C-3.5 60 13 60 30 60 C30 56.7 30 53.4 30 50 C33.3 50 36.6 50 40 50 C40 46.7 40 43.4 40 40 C36.7 40 33.4 40 30 40 C30 36.7 30 33.4 30 30 C23.4 30 16.8 30 10 30 C10 33.3 10 36.6 10 40 C13.3 40 16.6 40 20 40 C20 43.3 20 46.6 20 50 C10.1 50 0.2 50 -10 50 C-10 46.7 -10 43.4 -10 40 C-6.7 40 -3.4 40 0 40 C0 36.7 0 33.4 0 30 C-3.3 30 -6.6 30 -10 30 C-10 26.7 -10 23.4 -10 20 C-13.3 20 -16.6 20 -20 20 C-20 16.7 -20 13.4 -20 10 C-13.4 10 -6.8 10 0 10 C0 6.7 0 3.4 0 0 Z M10 70 C10 73.3 10 76.6 10 80 C13.3 80 16.6 80 20 80 C20 76.7 20 73.4 20 70 C16.7 70 13.4 70 10 70 Z " fill="#000000" transform="translate(90,120)"/>
<path d="M0 0 C23.1 0 46.2 0 70 0 C70 23.1 70 46.2 70 70 C46.9 70 23.8 70 0 70 C0 46.9 0 23.8 0 0 Z M10 10 C10 26.5 10 43 10 60 C26.5 60 43 60 60 60 C60 43.5 60 27 60 10 C43.5 10 27 10 10 10 Z " fill="#000000" transform="translate(40,220)"/>
<path d="M0 0 C23.1 0 46.2 0 70 0 C70 23.1 70 46.2 70 70 C46.9 70 23.8 70 0 70 C0 46.9 0 23.8 0 0 Z M10 10 C10 26.5 10 43 10 60 C26.5 60 43 60 60 60 C60 43.5 60 27 60 10 C43.5 10 27 10 10 10 Z " fill="#000000" transform="translate(220,40)"/>
<path d="M0 0 C23.1 0 46.2 0 70 0 C70 23.1 70 46.2 70 70 C46.9 70 23.8 70 0 70 C0 46.9 0 23.8 0 0 Z M10 10 C10 26.5 10 43 10 60 C26.5 60 43 60 60 60 C60 43.5 60 27 60 10 C43.5 10 27 10 10 10 Z " fill="#000000" transform="translate(40,40)"/>
<path d="M0 0 C3.3 0 6.6 0 10 0 C10 3.3 10 6.6 10 10 C13.3 10 16.6 10 20 10 C20 13.3 20 16.6 20 20 C36.5 20 53 20 70 20 C70 23.3 70 26.6 70 30 C66.7 30 63.4 30 60 30 C60 33.3 60 36.6 60 40 C56.7 40 53.4 40 50 40 C50 43.3 50 46.6 50 50 C46.7 50 43.4 50 40 50 C40 43.4 40 36.8 40 30 C36.7 30 33.4 30 30 30 C30 33.3 30 36.6 30 40 C26.7 40 23.4 40 20 40 C20 43.3 20 46.6 20 50 C16.7 50 13.4 50 10 50 C10 40.1 10 30.2 10 20 C6.7 20 3.4 20 0 20 C0 13.4 0 6.8 0 0 Z " fill="#000000" transform="translate(180,100)"/>
<path d="M0 0 C3.3 0 6.6 0 10 0 C10 3.3 10 6.6 10 10 C13.3 10 16.6 10 20 10 C20 13.3 20 16.6 20 20 C16.7 20 13.4 20 10 20 C10 23.3 10 26.6 10 30 C3.4 30 -3.2 30 -10 30 C-10 36.6 -10 43.2 -10 50 C-16.6 50 -23.2 50 -30 50 C-30 43.4 -30 36.8 -30 30 C-26.7 30 -23.4 30 -20 30 C-20 26.7 -20 23.4 -20 20 C-16.7 20 -13.4 20 -10 20 C-10 16.7 -10 13.4 -10 10 C-6.7 10 -3.4 10 0 10 C0 6.7 0 3.4 0 0 Z " fill="#000000" transform="translate(250,130)"/>
<path d="M0 0 C9.9 0 19.8 0 30 0 C30 9.9 30 19.8 30 30 C20.1 30 10.2 30 0 30 C0 20.1 0 10.2 0 0 Z " fill="#000000" transform="translate(60,240)"/>
<path d="M0 0 C9.9 0 19.8 0 30 0 C30 9.9 30 19.8 30 30 C20.1 30 10.2 30 0 30 C0 20.1 0 10.2 0 0 Z " fill="#000000" transform="translate(240,60)"/>
<path d="M0 0 C9.9 0 19.8 0 30 0 C30 9.9 30 19.8 30 30 C20.1 30 10.2 30 0 30 C0 20.1 0 10.2 0 0 Z " fill="#000000" transform="translate(60,60)"/>
<path d="M0 0 C6.6 0 13.2 0 20 0 C20 3.3 20 6.6 20 10 C23.3 10 26.6 10 30 10 C30 13.3 30 16.6 30 20 C26.7 20 23.4 20 20 20 C20 26.6 20 33.2 20 40 C13.4 40 6.8 40 0 40 C0 36.7 0 33.4 0 30 C3.3 30 6.6 30 10 30 C10 23.4 10 16.8 10 10 C6.7 10 3.4 10 0 10 C0 6.7 0 3.4 0 0 Z " fill="#000000" transform="translate(150,160)"/>
<path d="M0 0 C6.6 0 13.2 0 20 0 C20 9.9 20 19.8 20 30 C16.7 30 13.4 30 10 30 C10 26.7 10 23.4 10 20 C6.7 20 3.4 20 0 20 C0 13.4 0 6.8 0 0 Z " fill="#000000" transform="translate(270,120)"/>
<path d="M0 0 C6.6 0 13.2 0 20 0 C20 3.3 20 6.6 20 10 C23.3 10 26.6 10 30 10 C30 13.3 30 16.6 30 20 C23.4 20 16.8 20 10 20 C10 16.7 10 13.4 10 10 C6.7 10 3.4 10 0 10 C0 6.7 0 3.4 0 0 Z " fill="#000000" transform="translate(260,250)"/>
<path d="M0 0 C3.3 0 6.6 0 10 0 C10 9.9 10 19.8 10 30 C6.7 30 3.4 30 0 30 C0 26.7 0 23.4 0 20 C-3.3 20 -6.6 20 -10 20 C-10 16.7 -10 13.4 -10 10 C-6.7 10 -3.4 10 0 10 C0 6.7 0 3.4 0 0 Z " fill="#000000" transform="translate(280,160)"/>
<path d="M0 0 C9.9 0 19.8 0 30 0 C30 3.3 30 6.6 30 10 C26.7 10 23.4 10 20 10 C20 13.3 20 16.6 20 20 C16.7 20 13.4 20 10 20 C10 16.7 10 13.4 10 10 C6.7 10 3.4 10 0 10 C0 6.7 0 3.4 0 0 Z " fill="#000000" transform="translate(40,120)"/>
<path d="M0 0 C9.9 0 19.8 0 30 0 C30 3.3 30 6.6 30 10 C20.1 10 10.2 10 0 10 C0 6.7 0 3.4 0 0 Z " fill="#000000" transform="translate(40,200)"/>
<path d="M0 0 C3.3 0 6.6 0 10 0 C10 9.9 10 19.8 10 30 C6.7 30 3.4 30 0 30 C0 20.1 0 10.2 0 0 Z " fill="#000000" transform="translate(40,140)"/>
<path d="M0 0 C3.3 0 6.6 0 10 0 C10 6.6 10 13.2 10 20 C6.7 20 3.4 20 0 20 C0 13.4 0 6.8 0 0 Z " fill="#000000" transform="translate(280,210)"/>
<path d="M0 0 C3.3 0 6.6 0 10 0 C10 6.6 10 13.2 10 20 C6.7 20 3.4 20 0 20 C0 13.4 0 6.8 0 0 Z " fill="#000000" transform="translate(120,200)"/>
<path d="M0 0 C3.3 0 6.6 0 10 0 C10 6.6 10 13.2 10 20 C6.7 20 3.4 20 0 20 C0 13.4 0 6.8 0 0 Z " fill="#000000" transform="translate(200,90)"/>
<path d="M0 0 C3.3 0 6.6 0 10 0 C10 6.6 10 13.2 10 20 C6.7 20 3.4 20 0 20 C0 13.4 0 6.8 0 0 Z " fill="#000000" transform="translate(200,40)"/>
<path d="M0 0 C3.3 0 6.6 0 10 0 C10 3.3 10 6.6 10 10 C6.7 10 3.4 10 0 10 C0 6.7 0 3.4 0 0 Z " fill="#000000" transform="translate(280,280)"/>
<path d="M0 0 C3.3 0 6.6 0 10 0 C10 3.3 10 6.6 10 10 C6.7 10 3.4 10 0 10 C0 6.7 0 3.4 0 0 Z " fill="#000000" transform="translate(250,280)"/>
<path d="M0 0 C3.3 0 6.6 0 10 0 C10 3.3 10 6.6 10 10 C6.7 10 3.4 10 0 10 C0 6.7 0 3.4 0 0 Z " fill="#000000" transform="translate(280,240)"/>
<path d="M0 0 C3.3 0 6.6 0 10 0 C10 3.3 10 6.6 10 10 C6.7 10 3.4 10 0 10 C0 6.7 0 3.4 0 0 Z " fill="#000000" transform="translate(270,230)"/>
<path d="M0 0 C3.3 0 6.6 0 10 0 C10 3.3 10 6.6 10 10 C6.7 10 3.4 10 0 10 C0 6.7 0 3.4 0 0 Z " fill="#000000" transform="translate(220,220)"/>
<path d="M0 0 C3.3 0 6.6 0 10 0 C10 3.3 10 6.6 10 10 C6.7 10 3.4 10 0 10 C0 6.7 0 3.4 0 0 Z " fill="#000000" transform="translate(270,200)"/>
<path d="M0 0 C3.3 0 6.6 0 10 0 C10 3.3 10 6.6 10 10 C6.7 10 3.4 10 0 10 C0 6.7 0 3.4 0 0 Z " fill="#000000" transform="translate(130,190)"/>
<path d="M0 0 C3.3 0 6.6 0 10 0 C10 3.3 10 6.6 10 10 C6.7 10 3.4 10 0 10 C0 6.7 0 3.4 0 0 Z " fill="#000000" transform="translate(210,150)"/>
<path d="M0 0 C3.3 0 6.6 0 10 0 C10 3.3 10 6.6 10 10 C6.7 10 3.4 10 0 10 C0 6.7 0 3.4 0 0 Z " fill="#000000" transform="translate(70,150)"/>
<path d="M0 0 C3.3 0 6.6 0 10 0 C10 3.3 10 6.6 10 10 C6.7 10 3.4 10 0 10 C0 6.7 0 3.4 0 0 Z " fill="#000000" transform="translate(150,140)"/>
<path d="M0 0 C3.3 0 6.6 0 10 0 C10 3.3 10 6.6 10 10 C6.7 10 3.4 10 0 10 C0 6.7 0 3.4 0 0 Z " fill="#000000" transform="translate(60,140)"/>
<path d="M0 0 C3.3 0 6.6 0 10 0 C10 3.3 10 6.6 10 10 C6.7 10 3.4 10 0 10 C0 6.7 0 3.4 0 0 Z " fill="#000000" transform="translate(170,130)"/>
</svg>
